<!-- This is a modified version of the Catan board SVG generated by Adam Terlson -->
<!-- All credit goes to the original author: https://github.com/adamterlson/catan-board -->
<!-- This file has simply been edited to allow my script to fill the board on the client side, rather than by gulp build -->
<!-- This was done by adding 0-indexed IDs to the <g></g> for each tile that needs to be modified -->
<!-- As of now, all of the harbors are also commented out, as they have not been implemented yet -->

<!-- The robber will also be placed on the desert by default (<circle class="robber"></circle> will be added) -->
<svg viewBox="-400 -400 800 800" width="800" height="800" xmlns="http://www.w3.org/2000/svg">
    <g>
        <g class="tile ocean">
            <path d="M-311.76914536239786,-60L-259.80762113533154,-30.00000000000003L-259.80762113533154,30L-311.76914536239786,60L-363.7306695894642,29.999999999999986L-363.73066958946424,-29.99999999999995Z"></path>
            <text x="-311.76914536239786" y="0" dy=".35em"></text>
        </g>
        <g class="tile ocean">
            <path d="M-259.80762113533154,30L-207.84609690826522,59.99999999999997L-207.84609690826522,120L-259.80762113533154,150L-311.76914536239786,119.99999999999999L-311.7691453623979,60.00000000000005Z"></path>
            <text x="-259.80762113533154" y="90" dy=".35em"></text>
        </g>
        <g class="tile ocean">
            <path d="M-207.84609690826525,120L-155.88457268119896,149.99999999999997L-155.88457268119893,210L-207.84609690826522,240L-259.8076211353316,210L-259.8076211353316,150.00000000000006Z"></path>
            <text x="-207.84609690826525" y="180" dy=".35em"></text>
        </g>
        <g class="tile ocean">
            <path d="M-155.88457268119893,210L-103.92304845413263,239.99999999999997L-103.92304845413261,300L-155.8845726811989,330L-207.84609690826525,300L-207.84609690826528,240.00000000000006Z"></path>
            <text x="-155.88457268119893" y="270" dy=".35em"></text>
        </g>
        <g class="tile ocean">
            <path d="M-259.80762113533154,-150L-207.84609690826522,-120.00000000000003L-207.84609690826522,-60L-259.80762113533154,-30L-311.76914536239786,-60.000000000000014L-311.7691453623979,-119.99999999999994Z"></path>
            <text x="-259.80762113533154" y="-90" dy=".35em"></text>
        </g>
        <g class="tile" id="terrain-hex-7">
            <path d="M-207.84609690826525,-60L-155.88457268119896,-30.00000000000003L-155.88457268119893,30L-207.84609690826522,60L-259.8076211353316,29.999999999999986L-259.8076211353316,-29.99999999999995Z"></path>
            <text x="-207.84609690826525" y="0" dy=".35em"></text>
        </g>
        <g class="tile" id="terrain-hex-12">
            <path d="M-155.88457268119893,30L-103.92304845413263,59.99999999999997L-103.92304845413261,120L-155.8845726811989,150L-207.84609690826525,119.99999999999999L-207.84609690826528,60.00000000000005Z"></path>
            <text x="-155.88457268119893" y="90" dy=".35em"></text>
        </g>
        <g class="tile" id="terrain-hex-16">
            <path d="M-103.92304845413264,120L-51.96152422706632,149.99999999999997L-51.96152422706631,210L-103.92304845413261,240L-155.88457268119896,210L-155.88457268119896,150.00000000000006Z"></path>
            <text x="-103.92304845413263" y="180" dy=".35em"></text>
        </g>
        <g class="tile ocean">
            <path d="M-51.96152422706633,210L-7.105427357601002e-15,239.99999999999997L0,300L-51.96152422706629,330L-103.92304845413264,300L-103.92304845413267,240.00000000000006Z"></path>
            <text x="-51.96152422706631" y="270" dy=".35em"></text>
        </g>
        <g class="tile ocean">
            <path d="M-207.84609690826525,-240L-155.88457268119896,-210.00000000000003L-155.88457268119893,-150L-207.84609690826522,-120L-259.8076211353316,-150L-259.8076211353316,-209.99999999999994Z"></path>
            <text x="-207.84609690826525" y="-180" dy=".35em"></text>
        </g>
        <g class="tile" id="terrain-hex-3">
            <path d="M-155.88457268119893,-150L-103.92304845413263,-120.00000000000003L-103.92304845413261,-60L-155.8845726811989,-30L-207.84609690826525,-60.000000000000014L-207.84609690826528,-119.99999999999994Z"></path>
            <text x="-155.88457268119893" y="-90" dy=".35em"></text>
        </g>
        <g class="tile" id="terrain-hex-8">
            <path d="M-103.92304845413264,-60L-51.96152422706632,-30.00000000000003L-51.96152422706631,30L-103.92304845413261,60L-155.88457268119896,29.999999999999986L-155.88457268119896,-29.99999999999995Z"></path>
            <text x="-103.92304845413263" y="0" dy=".35em"></text>
        </g>
        <g class="tile" id="terrain-hex-13">
            <path d="M-51.96152422706633,30L-7.105427357601002e-15,59.99999999999997L0,120L-51.96152422706629,150L-103.92304845413264,119.99999999999999L-103.92304845413267,60.00000000000005Z"></path>
            <text x="-51.96152422706631" y="90" dy=".35em"></text>
        </g>
        <g class="tile" id="terrain-hex-17">
            <path d="M-1.1021821192326178e-14,120L51.961524227066306,149.99999999999997L51.96152422706631,210L1.8369701987210297e-14,240L-51.96152422706633,210L-51.96152422706635,150.00000000000006Z"></path>
            <text x="0" y="180" dy=".35em"></text>
        </g>
        <g class="tile ocean">
            <path d="M51.9615242270663,210L103.92304845413261,239.99999999999997L103.92304845413263,300L51.961524227066334,330L-1.4210854715202004e-14,300L-3.552713678800501e-14,240.00000000000006Z"></path>
            <text x="51.96152422706631" y="270" dy=".35em"></text>
        </g>
        <g class="tile ocean">
            <path d="M-155.88457268119893,-330L-103.92304845413263,-300L-103.92304845413261,-240L-155.8845726811989,-210L-207.84609690826525,-240L-207.84609690826528,-299.99999999999994Z"></path>
            <text x="-155.88457268119893" y="-270" dy=".35em"></text>
        </g>
        <g class="tile" id="terrain-hex-0">
            <path d="M-103.92304845413264,-240L-51.96152422706632,-210.00000000000003L-51.96152422706631,-150L-103.92304845413261,-120L-155.88457268119896,-150L-155.88457268119896,-209.99999999999994Z"></path>
            <text x="-103.92304845413263" y="-180" dy=".35em"></text>
        </g>
        <g class="tile" id="terrain-hex-4">
            <path d="M-51.96152422706633,-150L-7.105427357601002e-15,-120.00000000000003L0,-60L-51.96152422706629,-30L-103.92304845413264,-60.000000000000014L-103.92304845413267,-119.99999999999994Z"></path>
            <text x="-51.96152422706631" y="-90" dy=".35em"></text>
        </g>
        <g class="tile" id="terrain-hex-9">
            <path d="M-1.1021821192326178e-14,-60L51.961524227066306,-30.00000000000003L51.96152422706631,30L1.8369701987210297e-14,60L-51.96152422706633,29.999999999999986L-51.96152422706635,-29.99999999999995Z"></path>
            <text x="0" y="0" dy=".35em"></text>
        </g>
        <g class="tile" id="terrain-hex-14">
            <path d="M51.9615242270663,30L103.92304845413261,59.99999999999997L103.92304845413263,120L51.961524227066334,150L-1.4210854715202004e-14,119.99999999999999L-3.552713678800501e-14,60.00000000000005Z"></path>
            <text x="51.96152422706631" y="90" dy=".35em"></text>
        </g>
        <g class="tile" id="terrain-hex-18">
            <path d="M103.92304845413261,120L155.88457268119893,149.99999999999997L155.88457268119893,210L103.92304845413264,240L51.9615242270663,210L51.96152422706628,150.00000000000006Z"></path>
            <text x="103.92304845413263" y="180" dy=".35em"></text>
        </g>
        <g class="tile ocean">
            <path d="M155.88457268119893,210L207.84609690826522,239.99999999999997L207.84609690826525,300L155.88457268119896,330L103.92304845413261,300L103.92304845413258,240.00000000000006Z"></path>
            <text x="155.88457268119893" y="270" dy=".35em"></text>
        </g>
        <g class="tile ocean">
            <path d="M-51.96152422706633,-330L-7.105427357601002e-15,-300L0,-240L-51.96152422706629,-210L-103.92304845413264,-240L-103.92304845413267,-299.99999999999994Z"></path>
            <text x="-51.96152422706631" y="-270" dy=".35em"></text>
        </g>
        <g class="tile" id="terrain-hex-1">
            <path d="M-1.1021821192326178e-14,-240L51.961524227066306,-210.00000000000003L51.96152422706631,-150L1.8369701987210297e-14,-120L-51.96152422706633,-150L-51.96152422706635,-209.99999999999994Z"></path>
            <text x="0" y="-180" dy=".35em"></text>
        </g>
        <g class="tile" id="terrain-hex-5">
            <path d="M51.9615242270663,-150L103.92304845413261,-120.00000000000003L103.92304845413263,-60L51.961524227066334,-30L-1.4210854715202004e-14,-60.000000000000014L-3.552713678800501e-14,-119.99999999999994Z"></path>
            <text x="51.96152422706631" y="-90" dy=".35em"></text>
        </g>
        <g class="tile" id="terrain-hex-10">
            <path d="M103.92304845413261,-60L155.88457268119893,-30.00000000000003L155.88457268119893,30L103.92304845413264,60L51.9615242270663,29.999999999999986L51.96152422706628,-29.99999999999995Z"></path>
            <text x="103.92304845413263" y="0" dy=".35em"></text>
        </g>
        <g class="tile" id="terrain-hex-15">
            <path d="M155.88457268119893,30L207.84609690826522,59.99999999999997L207.84609690826525,120L155.88457268119896,150L103.92304845413261,119.99999999999999L103.92304845413258,60.00000000000005Z"></path>
            <text x="155.88457268119893" y="90" dy=".35em"></text>
        </g>
        <g class="tile ocean">
            <path d="M207.84609690826525,120L259.80762113533154,149.99999999999997L259.80762113533154,210L207.84609690826528,240L155.88457268119893,210L155.8845726811989,150.00000000000006Z"></path>
            <text x="207.84609690826525" y="180" dy=".35em"></text>
        </g>
        <g class="tile ocean">
            <path d="M51.9615242270663,-330L103.92304845413261,-300L103.92304845413263,-240L51.961524227066334,-210L-1.4210854715202004e-14,-240L-3.552713678800501e-14,-299.99999999999994Z"></path>
            <text x="51.96152422706631" y="-270" dy=".35em"></text>
        </g>
        <g class="tile" id="terrain-hex-2">
            <path d="M103.92304845413261,-240L155.88457268119893,-210.00000000000003L155.88457268119893,-150L103.92304845413264,-120L51.9615242270663,-150L51.96152422706628,-209.99999999999994Z"></path>
            <text x="103.92304845413263" y="-180" dy=".35em"></text>
        </g>
        <g class="tile" id="terrain-hex-6">
            <path d="M155.88457268119893,-150L207.84609690826522,-120.00000000000003L207.84609690826525,-60L155.88457268119896,-30L103.92304845413261,-60.000000000000014L103.92304845413258,-119.99999999999994Z"></path>
            <text x="155.88457268119893" y="-90" dy=".35em"></text>
        </g>
        <g class="tile" id="terrain-hex-11">
            <path d="M207.84609690826525,-60L259.80762113533154,-30.00000000000003L259.80762113533154,30L207.84609690826528,60L155.88457268119893,29.999999999999986L155.8845726811989,-29.99999999999995Z"></path>
            <text x="207.84609690826525" y="0" dy=".35em"></text>
        </g>
        <g class="tile ocean">
            <path d="M259.80762113533154,30L311.76914536239786,59.99999999999997L311.76914536239786,120L259.80762113533154,150L207.84609690826522,119.99999999999999L207.8460969082652,60.00000000000005Z"></path>
            <text x="259.80762113533154" y="90" dy=".35em"></text>
        </g>
        <g class="tile ocean">
            <path d="M155.88457268119893,-330L207.84609690826522,-300L207.84609690826525,-240L155.88457268119896,-210L103.92304845413261,-240L103.92304845413258,-299.99999999999994Z"></path>
            <text x="155.88457268119893" y="-270" dy=".35em"></text>
        </g>
        <g class="tile ocean">
            <path d="M207.84609690826525,-240L259.80762113533154,-210.00000000000003L259.80762113533154,-150L207.84609690826528,-120L155.88457268119893,-150L155.8845726811989,-209.99999999999994Z"></path>
            <text x="207.84609690826525" y="-180" dy=".35em"></text>
        </g>
        <g class="tile ocean">
            <path d="M259.80762113533154,-150L311.76914536239786,-120.00000000000003L311.76914536239786,-60L259.80762113533154,-30L207.84609690826522,-60.000000000000014L207.8460969082652,-119.99999999999994Z"></path>
            <text x="259.80762113533154" y="-90" dy=".35em"></text>
        </g>
        <g class="tile ocean">
            <path d="M311.76914536239786,-60L363.7306695894642,-30.00000000000003L363.7306695894642,30L311.76914536239786,60L259.80762113533154,29.999999999999986L259.8076211353315,-29.99999999999995Z"></path>
            <text x="311.76914536239786" y="0" dy=".35em"></text>
        </g>
        <path d="M-259.80762113533154,-30L-207.84609690826525,-60Z" class="border"></path>
        <path d="M-207.84609690826522,60L-259.80762113533154,30Z" class="border"></path>
<!--        <g class="port generic">
            <circle cx="-311.76914536239786" cy="0"></circle>
            <path d="M-259.80762113533154,30L-311.76914536239786,0L-259.80762113533154,-30"></path>
            <text x="-311.76914536239786" y="0" dy=".35em">3:1</text>
        </g>-->
        <path d="M-259.80762113533154,30L-259.80762113533154,-30Z" class="border"></path>
        <path d="M-207.84609690826522,60L-155.88457268119893,30Z" class="border"></path>
<!--        <g class="port generic">
            <circle cx="-207.84609690826525" cy="180"></circle>
            <path d="M-155.8845726811989,150L-207.84609690826525,180L-207.84609690826525,120"></path>
            <text x="-207.84609690826525" y="180" dy=".35em">3:1</text>
        </g>-->
        <path d="M-155.8845726811989,150L-207.84609690826525,120Z" class="border"></path>
        <path d="M-207.84609690826525,120L-207.84609690826522,60Z" class="border"></path>
        <path d="M-155.8845726811989,150L-103.92304845413264,120Z" class="border"></path>
        <path d="M-103.92304845413261,240L-155.88457268119893,210Z" class="border"></path>
        <path d="M-155.88457268119893,210L-155.8845726811989,150Z" class="border"></path>
        <path d="M-103.92304845413261,240L-51.96152422706633,210Z" class="border"></path>
        <path d="M-207.84609690826522,-120L-155.88457268119893,-150Z" class="border"></path>
        <path d="M-155.8845726811989,-30L-207.84609690826525,-60Z" class="border"></path>
        <path d="M-207.84609690826525,-60L-207.84609690826522,-120Z" class="border"></path>
        <path d="M-155.8845726811989,-30L-103.92304845413264,-60Z" class="border"></path>
        <path d="M-103.92304845413261,60L-155.88457268119893,30Z" class="border"></path>
        <path d="M-155.88457268119893,30L-155.8845726811989,-30Z" class="border"></path>
        <path d="M-103.92304845413261,60L-51.96152422706633,30Z" class="border"></path>
        <path d="M-51.96152422706629,150L-103.92304845413264,120Z" class="border"></path>
        <path d="M-103.92304845413264,120L-103.92304845413261,60Z" class="border"></path>
        <path d="M-51.96152422706629,150L-1.1021821192326178e-14,120Z" class="border"></path>
<!--        <g class="port specific brick">
            <circle cx="-51.96152422706631" cy="270" class="brick"></circle>
            <path d="M1.8369701987210297e-14,240L-51.96152422706631,270L-51.96152422706633,210"></path>
            <text x="-51.96152422706631" y="270" dy=".35em">2:1</text>
        </g>-->
        <path d="M1.8369701987210297e-14,240L-51.96152422706633,210Z" class="border"></path>
        <path d="M-51.96152422706633,210L-51.96152422706629,150Z" class="border"></path>
        <path d="M1.8369701987210297e-14,240L51.9615242270663,210Z" class="border"></path>
        <path d="M-155.8845726811989,-210L-103.92304845413264,-240Z" class="border"></path>
        <path d="M-103.92304845413261,-120L-155.88457268119893,-150Z" class="border"></path>
<!--        <g class="port specific lumber">
            <circle cx="-207.84609690826525" cy="-180" class="lumber"></circle>
            <path d="M-155.88457268119893,-150L-207.84609690826525,-180L-155.8845726811989,-210"></path>
            <text x="-207.84609690826525" y="-180" dy=".35em">2:1</text>
        </g>-->
        <path d="M-155.88457268119893,-150L-155.8845726811989,-210Z" class="border"></path>
        <path d="M-103.92304845413261,-120L-51.96152422706633,-150Z" class="border"></path>
        <path d="M-51.96152422706629,-30L-103.92304845413264,-60Z" class="border"></path>
        <path d="M-103.92304845413264,-60L-103.92304845413261,-120Z" class="border"></path>
        <path d="M-51.96152422706629,-30L-1.1021821192326178e-14,-60Z" class="border"></path>
        <path d="M1.8369701987210297e-14,60L-51.96152422706633,30Z" class="border"></path>
        <path d="M-51.96152422706633,30L-51.96152422706629,-30Z" class="border"></path>
        <path d="M1.8369701987210297e-14,60L51.9615242270663,30Z" class="border"></path>
        <path d="M51.961524227066334,150L-1.1021821192326178e-14,120Z" class="border"></path>
        <path d="M-1.1021821192326178e-14,120L1.8369701987210297e-14,60Z" class="border"></path>
        <path d="M51.961524227066334,150L103.92304845413261,120Z" class="border"></path>
        <path d="M103.92304845413264,240L51.9615242270663,210Z" class="border"></path>
        <path d="M51.9615242270663,210L51.961524227066334,150Z" class="border"></path>
<!--        <g class="port specific sheep">
            <circle cx="155.88457268119893" cy="270" class="sheep"></circle>
            <path d="M103.92304845413264,240L155.88457268119893,270L155.88457268119893,210"></path>
            <text x="155.88457268119893" y="270" dy=".35em">2:1</text>
        </g>-->
        <path d="M103.92304845413264,240L155.88457268119893,210Z" class="border"></path>
<!--        <g class="port generic">
            <circle cx="-51.96152422706631" cy="-270"></circle>
            <path d="M-51.96152422706629,-210L-51.96152422706631,-270L-103.92304845413264,-240"></path>
            <text x="-51.96152422706631" y="-270" dy=".35em">3:1</text>
        </g>-->
        <path d="M-51.96152422706629,-210L-103.92304845413264,-240Z" class="border"></path>
        <path d="M-51.96152422706629,-210L-1.1021821192326178e-14,-240Z" class="border"></path>
        <path d="M1.8369701987210297e-14,-120L-51.96152422706633,-150Z" class="border"></path>
        <path d="M-51.96152422706633,-150L-51.96152422706629,-210Z" class="border"></path>
        <path d="M1.8369701987210297e-14,-120L51.9615242270663,-150Z" class="border"></path>
        <path d="M-1.1021821192326178e-14,-60L1.8369701987210297e-14,-120Z" class="border"></path>
        <path d="M51.961524227066334,-30L103.92304845413261,-60Z" class="border"></path>
        <path d="M103.92304845413264,60L51.9615242270663,30Z" class="border"></path>
        <path d="M51.9615242270663,30L51.961524227066334,-30Z" class="border"></path>
        <path d="M103.92304845413264,60L155.88457268119893,30Z" class="border"></path>
        <path d="M155.88457268119896,150L103.92304845413261,120Z" class="border"></path>
        <path d="M103.92304845413261,120L103.92304845413264,60Z" class="border"></path>
        <path d="M155.88457268119896,150L207.84609690826525,120Z" class="border"></path>
        <path d="M155.88457268119893,210L155.88457268119896,150Z" class="border"></path>
        <path d="M51.961524227066334,-210L-1.1021821192326178e-14,-240Z" class="border"></path>
        <path d="M51.961524227066334,-210L103.92304845413261,-240Z" class="border"></path>
        <path d="M103.92304845413264,-120L51.9615242270663,-150Z" class="border"></path>
        <path d="M51.9615242270663,-150L51.961524227066334,-210Z" class="border"></path>
        <path d="M103.92304845413264,-120L155.88457268119893,-150Z" class="border"></path>
        <path d="M155.88457268119896,-30L103.92304845413261,-60Z" class="border"></path>
        <path d="M103.92304845413261,-60L103.92304845413264,-120Z" class="border"></path>
        <path d="M155.88457268119896,-30L207.84609690826525,-60Z" class="border"></path>
        <path d="M207.84609690826528,60L155.88457268119893,30Z" class="border"></path>
        <path d="M155.88457268119893,30L155.88457268119896,-30Z" class="border"></path>
        <path d="M207.84609690826528,60L259.80762113533154,30Z" class="border"></path>
<!--        <g class="port generic">
            <circle cx="259.80762113533154" cy="90"></circle>
            <path d="M207.84609690826525,120L259.80762113533154,90L207.84609690826528,60"></path>
            <text x="259.80762113533154" y="90" dy=".35em">3:1</text>
        </g>-->
        <path d="M207.84609690826525,120L207.84609690826528,60Z" class="border"></path>
<!--        <g class="port specific stone">
            <circle cx="155.88457268119893" cy="-270" class="stone"></circle>
            <path d="M155.88457268119896,-210L155.88457268119893,-270L103.92304845413261,-240"></path>
            <text x="155.88457268119893" y="-270" dy=".35em">2:1</text>
        </g>-->
        <path d="M155.88457268119896,-210L103.92304845413261,-240Z" class="border"></path>
        <path d="M207.84609690826528,-120L155.88457268119893,-150Z" class="border"></path>
        <path d="M155.88457268119893,-150L155.88457268119896,-210Z" class="border"></path>
        <path d="M259.80762113533154,-30L207.84609690826525,-60Z" class="border"></path>
<!--        <g class="port specific wheat">
            <circle cx="259.80762113533154" cy="-90" class="wheat"></circle>
            <path d="M207.84609690826525,-60L259.80762113533154,-90L207.84609690826528,-120"></path>
            <text x="259.80762113533154" y="-90" dy=".35em">2:1</text>
        </g>-->
        <path d="M207.84609690826525,-60L207.84609690826528,-120Z" class="border"></path>
        <path d="M259.80762113533154,30L259.80762113533154,-30Z" class="border"></path>
        <circle cx="-259.80762113533154" cy="30" class="node"></circle>
        <circle cx="-207.84609690826525" cy="120" class="node"></circle>
        <circle cx="-155.88457268119893" cy="210" class="node"></circle>
        <circle cx="-259.80762113533154" cy="-30" class="node"></circle>
        <circle cx="-207.84609690826525" cy="-60" class="node"></circle>
        <circle cx="-207.84609690826522" cy="60" class="node"></circle>
        <circle cx="-155.88457268119893" cy="30" class="node"></circle>
        <circle cx="-155.8845726811989" cy="150" class="node"></circle>
        <circle cx="-103.92304845413264" cy="120" class="node"></circle>
        <circle cx="-103.92304845413261" cy="240" class="node"></circle>
        <circle cx="-51.96152422706633" cy="210" class="node"></circle>
        <circle cx="-207.84609690826522" cy="-120" class="node"></circle>
        <circle cx="-155.88457268119893" cy="-150" class="node"></circle>
        <circle cx="-155.8845726811989" cy="-30" class="node"></circle>
        <circle cx="-103.92304845413264" cy="-60" class="node"></circle>
        <circle cx="-103.92304845413261" cy="60" class="node"></circle>
        <circle cx="-51.96152422706633" cy="30" class="node"></circle>
        <circle cx="-51.96152422706629" cy="150" class="node"></circle>
        <circle cx="-1.1021821192326178e-14" cy="120" class="node"></circle>
        <circle cx="1.8369701987210297e-14" cy="240" class="node"></circle>
        <circle cx="51.9615242270663" cy="210" class="node"></circle>
        <circle cx="-155.8845726811989" cy="-210" class="node"></circle>
        <circle cx="-103.92304845413264" cy="-240" class="node"></circle>
        <circle cx="-103.92304845413261" cy="-120" class="node"></circle>
        <circle cx="-51.96152422706633" cy="-150" class="node"></circle>
        <circle cx="-51.96152422706629" cy="-30" class="node"></circle>
        <circle cx="-1.1021821192326178e-14" cy="-60" class="node"></circle>
        <circle cx="1.8369701987210297e-14" cy="60" class="node"></circle>
        <circle cx="51.9615242270663" cy="30" class="node"></circle>
        <circle cx="51.961524227066334" cy="150" class="node"></circle>
        <circle cx="103.92304845413261" cy="120" class="node"></circle>
        <circle cx="103.92304845413264" cy="240" class="node"></circle>
        <circle cx="155.88457268119893" cy="210" class="node"></circle>
        <circle cx="-51.96152422706629" cy="-210" class="node"></circle>
        <circle cx="-1.1021821192326178e-14" cy="-240" class="node"></circle>
        <circle cx="1.8369701987210297e-14" cy="-120" class="node"></circle>
        <circle cx="51.9615242270663" cy="-150" class="node"></circle>
        <circle cx="51.961524227066334" cy="-30" class="node"></circle>
        <circle cx="103.92304845413261" cy="-60" class="node"></circle>
        <circle cx="103.92304845413264" cy="60" class="node"></circle>
        <circle cx="155.88457268119893" cy="30" class="node"></circle>
        <circle cx="155.88457268119896" cy="150" class="node"></circle>
        <circle cx="207.84609690826525" cy="120" class="node"></circle>
        <circle cx="51.961524227066334" cy="-210" class="node"></circle>
        <circle cx="103.92304845413261" cy="-240" class="node"></circle>
        <circle cx="103.92304845413264" cy="-120" class="node"></circle>
        <circle cx="155.88457268119893" cy="-150" class="node"></circle>
        <circle cx="155.88457268119896" cy="-30" class="node"></circle>
        <circle cx="207.84609690826525" cy="-60" class="node"></circle>
        <circle cx="207.84609690826528" cy="60" class="node"></circle>
        <circle cx="259.80762113533154" cy="30" class="node"></circle>
        <circle cx="155.88457268119896" cy="-210" class="node"></circle>
        <circle cx="207.84609690826528" cy="-120" class="node"></circle>
        <circle cx="259.80762113533154" cy="-30" class="node"></circle>
    </g>
</svg>